<?xml version="1.0" encoding="UTF-8" standalone="no"?>
<svg
   xmlns:dc="http://purl.org/dc/elements/1.1/"
   xmlns:cc="http://creativecommons.org/ns#"
   xmlns:rdf="http://www.w3.org/1999/02/22-rdf-syntax-ns#"
   xmlns:svg="http://www.w3.org/2000/svg"
   xmlns="http://www.w3.org/2000/svg"
   xmlns:sodipodi="http://sodipodi.sourceforge.net/DTD/sodipodi-0.dtd"
   xmlns:inkscape="http://www.inkscape.org/namespaces/inkscape"
   version="1.1"
   x="0px"
   y="0px"
   viewBox="435 240 333.39999 328.66626"
   enable-background="new 448.1 251.5 329.2 323.8"
   xml:space="preserve"
   id="svg2"
   inkscape:version="0.91 r13725"
   sodipodi:docname="pebble64_hexagons.svg"
   width="333.39999"
   height="328.66626"><metadata
     id="metadata136"><rdf:RDF><cc:Work
         rdf:about=""><dc:format>image/svg+xml</dc:format><dc:type
           rdf:resource="http://purl.org/dc/dcmitype/StillImage" /><dc:title></dc:title></cc:Work></rdf:RDF></metadata><defs
     id="defs134" /><sodipodi:namedview
     pagecolor="#ffffff"
     bordercolor="#666666"
     borderopacity="1"
     objecttolerance="10"
     gridtolerance="10"
     guidetolerance="10"
     inkscape:pageopacity="0"
     inkscape:pageshadow="2"
     inkscape:window-width="936"
     inkscape:window-height="687"
     id="namedview132"
     showgrid="false"
     fit-margin-top="0"
     fit-margin-left="0"
     fit-margin-right="0"
     fit-margin-bottom="0"
     inkscape:zoom="0.96740406"
     inkscape:cx="152.6186"
     inkscape:cy="177.54779"
     inkscape:window-x="182"
     inkscape:window-y="245"
     inkscape:window-maximized="0"
     inkscape:current-layer="svg2" /><polygon
     points="728.4,317.7 711.8,308.1 711.8,289 728.4,279.4 744.9,289 744.9,308.1 "
     id="polygon4"
     style="fill:#000000;stroke:#000000;stroke-width:3;stroke-miterlimit:4;stroke-dasharray:none;stroke-opacity:1"
     inkscape:export-xdpi="38.869999"
     inkscape:export-ydpi="38.869999"
     transform="translate(-11,-8.9645886)" /><polygon
     points="629.2,489.9 612.7,480.3 612.7,461.2 629.2,451.6 645.7,461.2 645.7,480.3 "
     id="polygon6"
     style="fill:#000055;stroke:#000000;stroke-width:3;stroke-miterlimit:4;stroke-dasharray:none;stroke-opacity:1"
     inkscape:export-xdpi="38.869999"
     inkscape:export-ydpi="38.869999"
     transform="translate(-11,-8.9645886)" /><polygon
     points="596.2,489.9 579.7,480.3 579.7,461.2 596.2,451.6 612.7,461.2 612.7,480.3 "
     id="polygon8"
     style="fill:#0000aa;stroke:#000000;stroke-width:3;stroke-miterlimit:4;stroke-dasharray:none;stroke-opacity:1"
     inkscape:export-xdpi="38.869999"
     inkscape:export-ydpi="38.869999"
     transform="translate(-11,-8.9645886)" /><polygon
     points="579.7,518.6 563.1,509 563.1,489.9 579.7,480.3 596.2,489.9 596.2,509 "
     id="polygon10"
     style="fill:#0000ff;stroke:#000000;stroke-width:3;stroke-miterlimit:4;stroke-dasharray:none;stroke-opacity:1"
     inkscape:export-xdpi="38.869999"
     inkscape:export-ydpi="38.869999"
     transform="translate(-11,-8.9645886)" /><polygon
     points="579.7,403.8 563.1,394.2 563.1,375.1 579.7,365.5 596.2,375.1 596.2,394.2 "
     id="polygon12"
     style="fill:#005500;stroke:#000000;stroke-width:3;stroke-miterlimit:4;stroke-dasharray:none;stroke-opacity:1"
     inkscape:export-xdpi="38.869999"
     inkscape:export-ydpi="38.869999"
     transform="translate(-11,-8.9645886)" /><polygon
     points="596.2,432.5 579.7,422.9 579.7,403.8 596.2,394.2 612.7,403.8 612.7,422.9 "
     id="polygon14"
     style="fill:#005555;stroke:#000000;stroke-width:3;stroke-miterlimit:4;stroke-dasharray:none;stroke-opacity:1"
     inkscape:export-xdpi="38.869999"
     inkscape:export-ydpi="38.869999"
     transform="translate(-11,-8.9645886)" /><polygon
     points="579.7,461.2 563.1,451.6 563.1,432.5 579.7,422.9 596.2,432.5 596.2,451.6 "
     id="polygon16"
     style="fill:#0055aa;stroke:#000000;stroke-width:3;stroke-miterlimit:4;stroke-dasharray:none;stroke-opacity:1"
     inkscape:export-xdpi="38.869999"
     inkscape:export-ydpi="38.869999"
     transform="translate(-11,-8.9645886)" /><polygon
     points="563.1,547.3 546.6,537.7 546.6,518.6 563.1,509 579.7,518.6 579.7,537.7 "
     id="polygon18"
     style="fill:#0055ff;stroke:#000000;stroke-width:3;stroke-miterlimit:4;stroke-dasharray:none;stroke-opacity:1"
     inkscape:export-xdpi="38.869999"
     inkscape:export-ydpi="38.869999"
     transform="translate(-11,-8.9645886)" /><polygon
     points="530.1,375.1 513.6,365.6 513.6,346.4 530.1,336.9 546.6,346.4 546.6,365.5 "
     id="polygon20"
     style="fill:#00aa00;stroke:#000000;stroke-width:3;stroke-miterlimit:4;stroke-dasharray:none;stroke-opacity:1"
     inkscape:export-xdpi="38.869999"
     inkscape:export-ydpi="38.869999"
     transform="translate(-11,-8.9645886)" /><polygon
     points="513.6,403.8 497,394.3 497,375.1 513.6,365.6 530.1,375.1 530.1,394.2 "
     id="polygon22"
     style="fill:#00aa55;stroke:#000000;stroke-width:3;stroke-miterlimit:4;stroke-dasharray:none;stroke-opacity:1"
     inkscape:export-xdpi="38.869999"
     inkscape:export-ydpi="38.869999"
     transform="translate(-11,-8.9645886)" /><polygon
     points="530.1,432.5 513.6,422.9 513.6,403.8 530.1,394.2 546.6,403.8 546.6,422.9 "
     id="polygon24"
     style="fill:#00aaaa;stroke:#000000;stroke-width:3;stroke-miterlimit:4;stroke-dasharray:none;stroke-opacity:1"
     inkscape:export-xdpi="38.869999"
     inkscape:export-ydpi="38.869999"
     transform="translate(-11,-8.9645886)" /><polygon
     points="563.1,489.9 546.6,480.3 546.6,461.2 563.1,451.6 579.7,461.2 579.7,480.3 "
     id="polygon26"
     style="fill:#00aaff;stroke:#000000;stroke-width:3;stroke-miterlimit:4;stroke-dasharray:none;stroke-opacity:1"
     inkscape:export-xdpi="38.869999"
     inkscape:export-ydpi="38.869999"
     transform="translate(-11,-8.9645886)" /><polygon
     points="513.6,346.4 497,336.9 497,317.7 513.6,308.2 530.1,317.7 530.1,336.9 "
     id="polygon28"
     style="fill:#00ff00;stroke:#000000;stroke-width:3;stroke-miterlimit:4;stroke-dasharray:none;stroke-opacity:1"
     inkscape:export-xdpi="38.869999"
     inkscape:export-ydpi="38.869999"
     transform="translate(-11,-8.9645886)" /><polygon
     points="497,375.1 480.5,365.6 480.5,346.4 497,336.9 513.6,346.4 513.6,365.6 "
     id="polygon30"
     style="fill:#00ff55;stroke:#000000;stroke-width:3;stroke-miterlimit:4;stroke-dasharray:none;stroke-opacity:1"
     inkscape:export-xdpi="38.869999"
     inkscape:export-ydpi="38.869999"
     transform="translate(-11,-8.9645886)" /><polygon
     points="497,432.5 480.5,423 480.5,403.8 497,394.3 513.6,403.8 513.6,422.9 "
     id="polygon32"
     style="fill:#00ffaa;stroke:#000000;stroke-width:3;stroke-miterlimit:4;stroke-dasharray:none;stroke-opacity:1"
     inkscape:export-xdpi="38.869999"
     inkscape:export-ydpi="38.869999"
     transform="translate(-11,-8.9645886)" /><polygon
     points="513.6,461.2 497,451.6 497,432.5 513.6,422.9 530.1,432.5 530.1,451.6 "
     id="polygon34"
     style="fill:#00ffff;stroke:#000000;stroke-width:3;stroke-miterlimit:4;stroke-dasharray:none;stroke-opacity:1"
     inkscape:export-xdpi="38.869999"
     inkscape:export-ydpi="38.869999"
     transform="translate(-11,-8.9645886)" /><polygon
     points="678.8,461.2 662.3,451.6 662.3,432.5 678.8,422.9 695.3,432.5 695.3,451.6 "
     id="polygon36"
     style="fill:#550000;stroke:#000000;stroke-width:3;stroke-miterlimit:4;stroke-dasharray:none;stroke-opacity:1"
     inkscape:export-xdpi="38.869999"
     inkscape:export-ydpi="38.869999"
     transform="translate(-11,-8.9645886)" /><polygon
     points="662.3,489.9 645.7,480.3 645.7,461.2 662.3,451.6 678.8,461.2 678.8,480.3 "
     id="polygon38"
     style="fill:#550055;stroke:#000000;stroke-width:3;stroke-miterlimit:4;stroke-dasharray:none;stroke-opacity:1"
     inkscape:export-xdpi="38.869999"
     inkscape:export-ydpi="38.869999"
     transform="translate(-11,-8.9645886)" /><polygon
     points="645.7,518.6 629.2,509 629.2,489.9 645.7,480.3 662.3,489.9 662.3,509 "
     id="polygon40"
     style="fill:#5500aa;stroke:#000000;stroke-width:3;stroke-miterlimit:4;stroke-dasharray:none;stroke-opacity:1"
     inkscape:export-xdpi="38.869999"
     inkscape:export-ydpi="38.869999"
     transform="translate(-11,-8.9645886)" /><polygon
     points="612.7,518.6 596.2,509 596.2,489.9 612.7,480.3 629.2,489.9 629.2,509 "
     id="polygon42"
     style="fill:#5500ff;stroke:#000000;stroke-width:3;stroke-miterlimit:4;stroke-dasharray:none;stroke-opacity:1"
     inkscape:export-xdpi="38.869999"
     inkscape:export-ydpi="38.869999"
     transform="translate(-11,-8.9645886)" /><polygon
     points="612.7,403.8 596.2,394.2 596.2,375.1 612.7,365.5 629.2,375.1 629.2,394.2 "
     id="polygon44"
     style="fill:#555500;stroke:#000000;stroke-width:3;stroke-miterlimit:4;stroke-dasharray:none;stroke-opacity:1"
     inkscape:export-xdpi="38.869999"
     inkscape:export-ydpi="38.869999"
     transform="translate(-11,-8.9645886)" /><polygon
     points="761.4,317.7 744.9,308.1 744.9,289 761.4,279.4 777.9,289 777.9,308.1 "
     id="polygon46"
     style="fill:#555555;stroke:#000000;stroke-width:3;stroke-miterlimit:4;stroke-dasharray:none;stroke-opacity:1"
     inkscape:export-xdpi="38.869999"
     inkscape:export-ydpi="38.869999"
     transform="translate(-11,-8.9645886)" /><polygon
     points="629.2,547.2 612.7,537.7 612.7,518.6 629.2,509 645.7,518.6 645.7,537.7 "
     id="polygon48"
     style="fill:#5555aa;stroke:#000000;stroke-width:3;stroke-miterlimit:4;stroke-dasharray:none;stroke-opacity:1"
     inkscape:export-xdpi="38.869999"
     inkscape:export-ydpi="38.869999"
     transform="translate(-11,-8.9645886)" /><polygon
     points="596.2,547.3 579.7,537.7 579.7,518.6 596.2,509 612.7,518.6 612.7,537.7 "
     id="polygon50"
     style="fill:#5555ff;stroke:#000000;stroke-width:3;stroke-miterlimit:4;stroke-dasharray:none;stroke-opacity:1"
     inkscape:export-xdpi="38.869999"
     inkscape:export-ydpi="38.869999"
     transform="translate(-11,-8.9645886)" /><polygon
     points="563.1,375.1 546.6,365.6 546.6,346.4 563.1,336.9 579.7,346.4 579.7,365.5 "
     id="polygon52"
     style="fill:#55aa00;stroke:#000000;stroke-width:3;stroke-miterlimit:4;stroke-dasharray:none;stroke-opacity:1"
     inkscape:export-xdpi="38.869999"
     inkscape:export-ydpi="38.869999"
     transform="translate(-11,-8.9645886)" /><polygon
     points="546.6,403.8 530.1,394.2 530.1,375.1 546.6,365.5 563.1,375.1 563.1,394.2 "
     id="polygon54"
     style="fill:#55aa55;stroke:#000000;stroke-width:3;stroke-miterlimit:4;stroke-dasharray:none;stroke-opacity:1"
     inkscape:export-xdpi="38.869999"
     inkscape:export-ydpi="38.869999"
     transform="translate(-11,-8.9645886)" /><polygon
     points="563.1,432.5 546.6,422.9 546.6,403.8 563.1,394.2 579.7,403.8 579.7,422.9 "
     id="polygon56"
     style="fill:#55aaaa;stroke:#000000;stroke-width:3;stroke-miterlimit:4;stroke-dasharray:none;stroke-opacity:1"
     inkscape:export-xdpi="38.869999"
     inkscape:export-ydpi="38.869999"
     transform="translate(-11,-8.9645886)" /><polygon
     points="546.6,518.6 530.1,509 530.1,489.9 546.6,480.3 563.1,489.9 563.1,509 "
     id="polygon58"
     style="fill:#55aaff;stroke:#000000;stroke-width:3;stroke-miterlimit:4;stroke-dasharray:none;stroke-opacity:1"
     inkscape:export-xdpi="38.869999"
     inkscape:export-ydpi="38.869999"
     transform="translate(-11,-8.9645886)" /><polygon
     points="530.1,317.7 513.6,308.2 513.6,289 530.1,279.5 546.6,289 546.6,308.2 "
     id="polygon60"
     style="fill:#55ff00;stroke:#000000;stroke-width:3;stroke-miterlimit:4;stroke-dasharray:none;stroke-opacity:1"
     inkscape:export-xdpi="38.869999"
     inkscape:export-ydpi="38.869999"
     transform="translate(-11,-8.9645886)" /><polygon
     points="480.5,346.4 464,336.9 464,317.7 480.5,308.2 497,317.7 497,336.9 "
     id="polygon62"
     style="fill:#55ff55;stroke:#000000;stroke-width:3;stroke-miterlimit:4;stroke-dasharray:none;stroke-opacity:1"
     inkscape:export-xdpi="38.869999"
     inkscape:export-ydpi="38.869999"
     transform="translate(-11,-8.9645886)" /><polygon
     points="480.5,403.8 464,394.3 464,375.1 480.5,365.6 497,375.1 497,394.3 "
     id="polygon64"
     style="fill:#55ffaa;stroke:#000000;stroke-width:3;stroke-miterlimit:4;stroke-dasharray:none;stroke-opacity:1"
     inkscape:export-xdpi="38.869999"
     inkscape:export-ydpi="38.869999"
     transform="translate(-11,-8.9645886)" /><polygon
     points="480.5,461.2 464,451.7 464,432.5 480.5,423 497,432.5 497,451.6 "
     id="polygon66"
     style="fill:#55ffff;stroke:#000000;stroke-width:3;stroke-miterlimit:4;stroke-dasharray:none;stroke-opacity:1"
     inkscape:export-xdpi="38.869999"
     inkscape:export-ydpi="38.869999"
     transform="translate(-11,-8.9645886)" /><polygon
     points="711.8,461.2 695.3,451.6 695.3,432.5 711.8,422.9 728.4,432.5 728.4,451.6 "
     id="polygon68"
     style="fill:#aa0000;stroke:#000000;stroke-width:3;stroke-miterlimit:4;stroke-dasharray:none;stroke-opacity:1"
     inkscape:export-xdpi="38.869999"
     inkscape:export-ydpi="38.869999"
     transform="translate(-11,-8.9645886)" /><polygon
     points="695.3,489.9 678.8,480.3 678.8,461.2 695.3,451.6 711.8,461.2 711.8,480.3 "
     id="polygon70"
     style="fill:#aa0055;stroke:#000000;stroke-width:3;stroke-miterlimit:4;stroke-dasharray:none;stroke-opacity:1"
     inkscape:export-xdpi="38.869999"
     inkscape:export-ydpi="38.869999"
     transform="translate(-11,-8.9645886)" /><polygon
     points="678.8,518.6 662.3,509 662.3,489.9 678.8,480.3 695.3,489.9 695.3,509 "
     id="polygon72"
     style="fill:#aa00aa;stroke:#000000;stroke-width:3;stroke-miterlimit:4;stroke-dasharray:none;stroke-opacity:1"
     inkscape:export-xdpi="38.869999"
     inkscape:export-ydpi="38.869999"
     transform="translate(-11,-8.9645886)" /><polygon
     points="662.3,547.2 645.7,537.7 645.7,518.5 662.3,509 678.8,518.5 678.8,537.7 "
     id="polygon74"
     style="fill:#aa00ff;stroke:#000000;stroke-width:3;stroke-miterlimit:4;stroke-dasharray:none;stroke-opacity:1"
     inkscape:export-xdpi="38.869999"
     inkscape:export-ydpi="38.869999"
     transform="translate(-11,-8.9645886)" /><polygon
     points="678.8,403.8 662.3,394.2 662.3,375.1 678.8,365.5 695.3,375.1 695.3,394.2 "
     id="polygon76"
     style="fill:#aa5500;stroke:#000000;stroke-width:3;stroke-miterlimit:4;stroke-dasharray:none;stroke-opacity:1"
     inkscape:export-xdpi="38.869999"
     inkscape:export-ydpi="38.869999"
     transform="translate(-11,-8.9645886)" /><polygon
     points="695.3,432.5 678.8,422.9 678.8,403.8 695.3,394.2 711.8,403.8 711.8,422.9 "
     id="polygon78"
     style="fill:#aa5555;stroke:#000000;stroke-width:3;stroke-miterlimit:4;stroke-dasharray:none;stroke-opacity:1"
     inkscape:export-xdpi="38.869999"
     inkscape:export-ydpi="38.869999"
     transform="translate(-11,-8.9645886)" /><polygon
     points="695.3,547.2 678.8,537.7 678.8,518.5 695.3,509 711.8,518.5 711.8,537.6 "
     id="polygon80"
     style="fill:#aa55aa;stroke:#000000;stroke-width:3;stroke-miterlimit:4;stroke-dasharray:none;stroke-opacity:1"
     inkscape:export-xdpi="38.869999"
     inkscape:export-ydpi="38.869999"
     transform="translate(-11,-8.9645886)" /><polygon
     points="678.8,575.9 662.3,566.4 662.3,547.2 678.8,537.7 695.3,547.2 695.3,566.4 "
     id="polygon82"
     style="fill:#aa55ff;stroke:#000000;stroke-width:3;stroke-miterlimit:4;stroke-dasharray:none;stroke-opacity:1"
     inkscape:export-xdpi="38.869999"
     inkscape:export-ydpi="38.869999"
     transform="translate(-11,-8.9645886)" /><polygon
     points="629.2,375.1 612.7,365.5 612.7,346.4 629.2,336.8 645.7,346.4 645.7,365.5 "
     id="polygon84"
     style="fill:#aaaa00;stroke:#000000;stroke-width:3;stroke-miterlimit:4;stroke-dasharray:none;stroke-opacity:1"
     inkscape:export-xdpi="38.869999"
     inkscape:export-ydpi="38.869999"
     transform="translate(-11,-8.9645886)" /><polygon
     points="596.2,375.1 579.7,365.6 579.7,346.4 596.2,336.9 612.7,346.4 612.7,365.5 "
     id="polygon86"
     style="fill:#aaaa55;stroke:#000000;stroke-width:3;stroke-miterlimit:4;stroke-dasharray:none;stroke-opacity:1"
     inkscape:export-xdpi="38.869999"
     inkscape:export-ydpi="38.869999"
     transform="translate(-11,-8.9645886)" /><polygon
     points="711.8,289 695.3,279.4 695.3,260.3 711.8,250.7 728.4,260.3 728.4,279.4 "
     id="polygon88"
     style="fill:#aaaaaa;stroke:#000000;stroke-width:3;stroke-miterlimit:4;stroke-dasharray:none;stroke-opacity:1"
     inkscape:export-xdpi="38.869999"
     inkscape:export-ydpi="38.869999"
     transform="translate(-11,-8.9645886)" /><polygon
     points="744.9,289 728.4,279.4 728.4,260.3 744.9,250.7 761.4,260.3 761.4,279.4 "
     id="polygon90"
     style="fill:#ffffff;stroke:#000000;stroke-width:3;stroke-miterlimit:4;stroke-dasharray:none;stroke-opacity:1"
     inkscape:export-xdpi="38.869999"
     inkscape:export-ydpi="38.869999"
     transform="translate(-11,-8.9645886)" /><polygon
     points="612.7,575.9 596.2,566.4 596.2,547.3 612.7,537.7 629.2,547.3 629.2,566.4 "
     id="polygon92"
     style="fill:#aaaaff;stroke:#000000;stroke-width:3;stroke-miterlimit:4;stroke-dasharray:none;stroke-opacity:1"
     inkscape:export-xdpi="38.869999"
     inkscape:export-ydpi="38.869999"
     transform="translate(-11,-8.9645886)" /><polygon
     points="563.1,317.7 546.6,308.2 546.6,289 563.1,279.5 579.7,289 579.7,308.1 "
     id="polygon94"
     style="fill:#aaff00;stroke:#000000;stroke-width:3;stroke-miterlimit:4;stroke-dasharray:none;stroke-opacity:1"
     inkscape:export-xdpi="38.869999"
     inkscape:export-ydpi="38.869999"
     transform="translate(-11,-8.9645886)" /><polygon
     points="546.6,289 530.1,279.5 530.1,260.3 546.6,250.8 563.1,260.3 563.1,279.5 "
     id="polygon96"
     style="fill:#aaff55;stroke:#000000;stroke-width:3;stroke-miterlimit:4;stroke-dasharray:none;stroke-opacity:1"
     inkscape:export-xdpi="38.869999"
     inkscape:export-ydpi="38.869999"
     transform="translate(-11,-8.9645886)" /><polygon
     points="464,317.7 447.5,308.2 447.5,289 464,279.5 480.5,289 480.5,308.2 "
     id="polygon98"
     style="fill:#aaffaa;stroke:#000000;stroke-width:3;stroke-miterlimit:4;stroke-dasharray:none;stroke-opacity:1"
     inkscape:export-xdpi="38.869999"
     inkscape:export-ydpi="38.869999"
     transform="translate(-11,-8.9645886)" /><polygon
     points="464,489.9 447.5,480.4 447.5,461.2 464,451.7 480.5,461.2 480.5,480.4 "
     id="polygon100"
     style="fill:#aaffff;stroke:#000000;stroke-width:3;stroke-miterlimit:4;stroke-dasharray:none;stroke-opacity:1"
     inkscape:export-xdpi="38.869999"
     inkscape:export-ydpi="38.869999"
     transform="translate(-11,-8.9645886)" /><polygon
     points="711.8,403.8 695.3,394.2 695.3,375.1 711.8,365.5 728.4,375.1 728.4,394.2 "
     id="polygon102"
     style="fill:#ff0000;stroke:#000000;stroke-width:3;stroke-miterlimit:4;stroke-dasharray:none;stroke-opacity:1"
     inkscape:export-xdpi="38.869999"
     inkscape:export-ydpi="38.869999"
     transform="translate(-11,-8.9645886)" /><polygon
     points="728.4,432.4 711.8,422.9 711.8,403.8 728.4,394.2 744.9,403.8 744.9,422.9 "
     id="polygon104"
     style="fill:#ff0055;stroke:#000000;stroke-width:3;stroke-miterlimit:4;stroke-dasharray:none;stroke-opacity:1"
     inkscape:export-xdpi="38.869999"
     inkscape:export-ydpi="38.869999"
     transform="translate(-11,-8.9645886)" /><polygon
     points="728.4,489.9 711.8,480.3 711.8,461.2 728.4,451.6 744.9,461.2 744.9,480.3 "
     id="polygon106"
     style="fill:#ff00aa;stroke:#000000;stroke-width:3;stroke-miterlimit:4;stroke-dasharray:none;stroke-opacity:1"
     inkscape:export-xdpi="38.869999"
     inkscape:export-ydpi="38.869999"
     transform="translate(-11,-8.9645886)" /><polygon
     points="711.8,518.5 695.3,509 695.3,489.9 711.8,480.3 728.4,489.9 728.4,509 "
     id="polygon108"
     style="fill:#ff00ff;stroke:#000000;stroke-width:3;stroke-miterlimit:4;stroke-dasharray:none;stroke-opacity:1"
     inkscape:export-xdpi="38.869999"
     inkscape:export-ydpi="38.869999"
     transform="translate(-11,-8.9645886)" /><polygon
     points="695.3,375.1 678.8,365.5 678.8,346.4 695.3,336.8 711.8,346.4 711.8,365.5 "
     id="polygon110"
     style="fill:#ff5500;stroke:#000000;stroke-width:3;stroke-miterlimit:4;stroke-dasharray:none;stroke-opacity:1"
     inkscape:export-xdpi="38.869999"
     inkscape:export-ydpi="38.869999"
     transform="translate(-11,-8.9645886)" /><polygon
     points="744.9,403.7 728.4,394.2 728.4,375.1 744.9,365.5 761.4,375.1 761.4,394.2 "
     id="polygon112"
     style="fill:#ff5555;stroke:#000000;stroke-width:3;stroke-miterlimit:4;stroke-dasharray:none;stroke-opacity:1"
     inkscape:export-xdpi="38.869999"
     inkscape:export-ydpi="38.869999"
     transform="translate(-11,-8.9645886)" /><polygon
     points="744.9,518.5 728.4,509 728.4,489.8 744.9,480.3 761.4,489.8 761.4,509 "
     id="polygon114"
     style="fill:#ff55aa;stroke:#000000;stroke-width:3;stroke-miterlimit:4;stroke-dasharray:none;stroke-opacity:1"
     inkscape:export-xdpi="38.869999"
     inkscape:export-ydpi="38.869999"
     transform="translate(-11,-8.9645886)" /><polygon
     points="728.4,547.2 711.8,537.7 711.8,518.6 728.4,509 744.9,518.6 744.9,537.7 "
     id="polygon116"
     style="fill:#ff55ff;stroke:#000000;stroke-width:3;stroke-miterlimit:4;stroke-dasharray:none;stroke-opacity:1"
     inkscape:export-xdpi="38.869999"
     inkscape:export-ydpi="38.869999"
     transform="translate(-11,-8.9645886)" /><polygon
     points="662.3,375.1 645.7,365.5 645.7,346.4 662.3,336.8 678.8,346.4 678.8,365.5 "
     id="polygon118"
     style="fill:#ffaa00;stroke:#000000;stroke-width:3;stroke-miterlimit:4;stroke-dasharray:none;stroke-opacity:1"
     inkscape:export-xdpi="38.869999"
     inkscape:export-ydpi="38.869999"
     transform="translate(-11,-8.9645886)" /><polygon
     points="678.8,346.4 662.3,336.8 662.3,317.7 678.8,308.1 695.3,317.7 695.3,336.8 "
     id="polygon120"
     style="fill:#ffaa55;stroke:#000000;stroke-width:3;stroke-miterlimit:4;stroke-dasharray:none;stroke-opacity:1"
     inkscape:export-xdpi="38.869999"
     inkscape:export-ydpi="38.869999"
     transform="translate(-11,-8.9645886)" /><polygon
     points="761.4,375.1 744.9,365.5 744.9,346.4 761.4,336.8 777.9,346.4 777.9,365.5 "
     id="polygon122"
     style="fill:#ffaaaa;stroke:#000000;stroke-width:3;stroke-miterlimit:4;stroke-dasharray:none;stroke-opacity:1"
     inkscape:export-xdpi="38.869999"
     inkscape:export-ydpi="38.869999"
     transform="translate(-11,-8.9645886)" /><polygon
     points="761.4,547.2 744.9,537.7 744.9,518.5 761.4,509 777.9,518.5 777.9,537.6 "
     id="polygon124"
     style="fill:#ffaaff;stroke:#000000;stroke-width:3;stroke-miterlimit:4;stroke-dasharray:none;stroke-opacity:1"
     inkscape:export-xdpi="38.869999"
     inkscape:export-ydpi="38.869999"
     transform="translate(-11,-8.9645886)" /><polygon
     points="645.7,346.4 629.2,336.8 629.2,317.7 645.7,308.1 662.3,317.7 662.3,336.8 "
     id="polygon126"
     style="fill:#ffff00;stroke:#000000;stroke-width:3;stroke-miterlimit:4;stroke-dasharray:none;stroke-opacity:1"
     inkscape:export-xdpi="38.869999"
     inkscape:export-ydpi="38.869999"
     transform="translate(-11,-8.9645886)" /><polygon
     points="662.3,317.7 645.7,308.1 645.7,289 662.3,279.4 678.8,289 678.8,308.1 "
     id="polygon128"
     style="fill:#ffff55;stroke:#000000;stroke-width:3;stroke-miterlimit:4;stroke-dasharray:none;stroke-opacity:1"
     inkscape:export-xdpi="38.869999"
     inkscape:export-ydpi="38.869999"
     transform="translate(-11,-8.9645886)" /><polygon
     points="645.7,289 629.2,279.4 629.2,260.3 645.7,250.7 662.3,260.3 662.3,279.4 "
     id="polygon130"
     style="fill:#ffffaa;stroke:#000000;stroke-width:3;stroke-miterlimit:4;stroke-dasharray:none;stroke-opacity:1"
     inkscape:export-xdpi="38.869999"
     inkscape:export-ydpi="38.869999"
     transform="translate(-11,-8.9645886)" /></svg>